# Alias OBJ Model File
# Exported from SketchUp, (c) 2000-2012 Trimble Navigation Limited
# File units = millimeters

mtllib CubeBlue.mtl

g Mesh1 Model

usemtl _2
v -1.56648 -3 -1.75212
vt -0.0689809 -0.11811
vn -1 0 -0
v -1.56648 -3 1.10183
vt 0.0433791 -0.11811
v -1.56648 3.17246e-15 1.10183
vt 0.0433791 1.249e-16
v -1.56648 3.17246e-15 -1.75212
vt -0.0689809 1.249e-16
f 1/1/1 2/2/1 3/3/1 4/4/1 

v 1.28747 -3 1.10183
vt -0.0506877 -0.0433791
vn 0 -1 -0
vt 0.0616724 -0.0433791
vt 0.0616724 0.0689809
v 1.28747 -3 -1.75212
vt -0.0506877 0.0689809
f 5/5/2 2/6/2 1/7/2 6/8/2 

vt -0.0616724 -0.11811
vn 0 0 1
vt 0.0506877 -0.11811
v 1.28747 3.17246e-15 1.10183
vt 0.0506877 1.249e-16
vt -0.0616724 1.249e-16
f 2/9/3 5/10/3 7/11/3 3/12/3 

vt -0.0433791 -0.11811
vn 1 0 -0
vt 0.0689809 -0.11811
v 1.28747 3.17246e-15 -1.75212
vt 0.0689809 1.249e-16
vt -0.0433791 1.249e-16
f 5/13/4 6/14/4 8/15/4 7/16/4 

vt -0.0506877 -0.11811
vn 0 0 -1
vt 0.0616724 -0.11811
vt 0.0616724 1.249e-16
vt -0.0506877 1.249e-16
f 6/17/5 1/18/5 4/19/5 8/20/5 

vt -0.0616724 -0.0433791
vn 0 1 -0
vt 0.0506877 -0.0433791
vt 0.0506877 0.0689809
vt -0.0616724 0.0689809
f 3/21/6 7/22/6 8/23/6 4/24/6 

