# Alias OBJ Model File
# Exported from SketchUp, (c) 2000-2012 Trimble Navigation Limited
# File units = millimeters

mtllib FenceTest.mtl

g Mesh1 Model

usemtl Brick_Tumbled
v 73.367 0 -0
vt 0 0
vn 1 0 -0
v 73.367 0 -250
vt 12.5 0
v 73.367 55 -250
vt 12.5 5.5
v 73.367 55 -0
vt 0 5.5
f 1/1/1 2/2/1 3/3/1 4/4/1 

vt -3.66835 0
vn 0 -1 -0
v 70.367 0 -0
vt -3.51835 0
v 70.367 0 -250
vt -3.51835 25
vt -3.66835 25
f 1/5/2 5/6/2 6/7/2 2/8/2 

vt 3.51835 0
vn 0 0 1
vt 3.66835 0
vt 3.66835 5.5
v 70.367 55 -0
vt 3.51835 5.5
f 5/9/3 1/10/3 4/11/3 7/12/3 

vn 0 1 -0
vt 3.66835 25
v 70.367 55 -250
vt 3.51835 25
f 7/9/4 4/10/4 3/13/4 8/14/4 

vn 0 0 -1
vt -3.51835 5.5
vt -3.66835 5.5
f 2/5/5 6/6/5 8/15/5 3/16/5 

vt -12.5 0
vn -1 0 -0
vt -12.5 5.5
f 6/17/6 5/1/6 7/4/6 8/18/6 

g Mesh2 Model

v -73.3198 55 -0
vt -3.66599 0
v -70.3198 55 -0
vt -3.51599 0
v -70.3198 55 -250
vt -3.51599 25
v -73.3198 55 -250
vt -3.66599 25
f 9/19/4 10/20/4 11/21/4 12/22/4 

vt -3.51599 5.5
vt -3.66599 5.5
v -73.3198 0 -0
v -70.3198 0 -0
f 10/23/3 9/24/3 13/19/3 14/20/3 

v -73.3198 0 -250
f 12/18/6 15/17/6 13/1/6 9/4/6 

vt 3.66599 0
vt 3.66599 5.5
vt 3.51599 5.5
v -70.3198 0 -250
vt 3.51599 0
f 15/25/5 12/26/5 11/27/5 16/28/5 

f 14/1/1 16/2/1 11/3/1 10/4/1 

vt 3.51599 25
vt 3.66599 25
f 16/29/2 14/28/2 13/25/2 15/30/2 

