# Alias OBJ Model File
# Exported from SketchUp, (c) 2000-2012 Trimble Navigation Limited
# File units = millimeters

mtllib FenceBig.mtl

g Mesh1 Model

usemtl Sketchy_Stone
v -65 0 -0
vt 3.25 0
vn 0 -1 -0
v -68 0 -0
vt 3.4 0
v -68 0 -250
vt 3.4 12.5
v -65 0 -250
vt 3.25 12.5
f 1/1/1 2/2/1 3/3/1 4/4/1 

vt -3.4 0
vn 0 0 1
vt -3.25 0
v -65 25 -0
vt -3.25 1.25
v -68 25 -0
vt -3.4 1.25
f 2/5/2 1/6/2 5/7/2 6/8/2 

vt 0 0
vn 1 0 -0
vt 12.5 0
v -65 25 -250
vt 12.5 1.25
v -65 25 -248.012
vt 12.4006 1.25
vt 0 1.25
f 1/9/3 4/10/3 7/11/3 8/12/3 5/13/3 

vn 0 0 -1
v -68 25 -250
vt 3.4 1.25
vt 3.25 1.25
f 4/1/4 3/2/4 9/14/4 7/15/4 

vt -12.5 0
vn -1 0 -0
v -68 25 -248.012
vt -12.4006 1.25
vt -12.5 1.25
f 3/16/5 2/9/5 6/13/5 10/17/5 9/18/5 

usemtl FrontColor
vt -2.55906 9.76426
vn 0 1 -0
vt -2.67717 9.76426
vt -2.67717 0
vt -2.55906 0
f 8/19/6 10/20/6 6/21/6 5/22/6 

vt -2.55906 9.84252
vt -2.67717 9.84252
f 10/20/6 8/19/6 7/23/6 9/24/6 

g Mesh2 Model

usemtl _Sketchy_Stone_1
v 68 0 -0
v 65 0 -0
v 65 0 -250
v 68 0 -250
f 11/1/1 12/2/1 13/3/1 14/4/1 

v 68 25 -0
v 65 25 -0
f 12/5/2 11/6/2 15/7/2 16/8/2 

v 68 25 -250
f 11/9/3 14/10/3 17/11/3 15/13/3 

v 65 25 -250
f 14/1/4 13/2/4 18/14/4 17/15/4 

f 13/16/5 12/9/5 16/13/5 18/18/5 

usemtl FrontColor
vt 2.55906 9.84252
vt 2.55906 0
vt 2.67717 0
vt 2.67717 9.84252
f 18/25/6 16/26/6 15/27/6 17/28/6 

